<svg width="264" height="249" viewBox="0 0 264 249" fill="none" xmlns="http://www.w3.org/2000/svg">
<path d="M59.5207 185.306C60.6777 185.306 61.8085 185.2 62.913 184.99C64.0701 184.727 64.9379 184.412 65.5164 184.043V176.785L59.0473 177.338C57.3643 177.495 55.9968 177.89 54.9449 178.521C53.9456 179.099 53.446 179.994 53.446 181.203C53.446 182.466 53.9194 183.465 54.8661 184.201C55.8128 184.937 57.3643 185.306 59.5207 185.306ZM59.0473 153.828C61.7822 153.828 64.2542 154.117 66.4631 154.696C68.7247 155.222 70.6444 156.063 72.2222 157.22C73.8001 158.377 75.0097 159.85 75.8513 161.638C76.7454 163.426 77.1924 165.53 77.1924 167.949V185.779C77.1924 187.146 76.8243 188.251 76.0879 189.092C75.4042 189.881 74.5627 190.565 73.5634 191.144C71.933 192.143 69.9344 192.906 67.5676 193.432C65.2009 193.957 62.5186 194.22 59.5207 194.22C54.1034 194.22 49.7907 193.195 46.5824 191.144C43.3742 189.04 41.77 185.858 41.77 181.598C41.77 177.969 42.8482 175.208 45.0046 173.314C47.161 171.421 50.4744 170.237 54.9449 169.764L65.4375 168.659V167.792C65.4375 166.109 64.7538 164.873 63.3864 164.084C62.0189 163.295 60.0466 162.9 57.4695 162.9C55.4709 162.9 53.4986 163.137 51.5526 163.61C49.6592 164.084 47.9499 164.636 46.4246 165.267C45.7935 164.846 45.2413 164.215 44.7679 163.374C44.3472 162.48 44.1368 161.533 44.1368 160.534C44.1368 158.219 45.3464 156.563 47.7658 155.563C49.291 154.985 51.0529 154.564 53.0515 154.301C55.1027 153.986 57.1013 153.828 59.0473 153.828Z" fill="#4063FF"/>
<path d="M104.975 194.142C103.607 194.142 102.345 194.01 101.188 193.747C100.031 193.537 98.9789 193.247 98.0322 192.879L98.0322 207.001C97.5062 207.159 96.7699 207.316 95.8232 207.474C94.8765 207.632 93.8246 207.711 92.6675 207.711C90.3008 207.711 88.5915 207.316 87.5396 206.528C86.4877 205.739 85.9617 204.24 85.9617 202.031V162.979C85.9617 161.612 86.251 160.507 86.8295 159.666C87.4081 158.772 88.2233 157.983 89.2752 157.299C90.853 156.3 92.8779 155.485 95.3498 154.853C97.8218 154.17 100.557 153.828 103.555 153.828C106.605 153.828 109.393 154.222 111.917 155.011C114.494 155.748 116.703 156.931 118.544 158.561C120.385 160.192 121.805 162.269 122.804 164.794C123.856 167.318 124.382 170.316 124.382 173.787C124.382 177.101 123.882 180.046 122.883 182.623C121.936 185.148 120.595 187.278 118.86 189.014C117.124 190.697 115.073 191.985 112.706 192.879C110.339 193.721 107.762 194.142 104.975 194.142ZM103.16 184.596C106 184.596 108.183 183.702 109.708 181.913C111.286 180.125 112.075 177.416 112.075 173.787C112.075 170.053 111.312 167.371 109.787 165.74C108.314 164.11 106.237 163.295 103.555 163.295C102.345 163.295 101.293 163.453 100.399 163.768C99.5048 164.031 98.6896 164.347 97.9533 164.715V183.254C98.6896 183.675 99.4785 184.017 100.32 184.28C101.162 184.49 102.108 184.596 103.16 184.596Z" fill="#4063FF"/>
<path d="M143.957 192.879C143.431 193.037 142.695 193.169 141.748 193.274C140.801 193.431 139.749 193.51 138.592 193.51C136.226 193.51 134.516 193.142 133.464 192.406C132.465 191.617 131.965 190.118 131.965 187.909V155.485C132.491 155.327 133.228 155.169 134.174 155.011C135.121 154.853 136.173 154.775 137.33 154.775C139.697 154.775 141.38 155.169 142.379 155.958C143.431 156.747 143.957 158.246 143.957 160.455V192.879ZM131.255 144.124C131.255 142.336 131.86 140.811 133.07 139.548C134.332 138.286 135.963 137.655 137.961 137.655C139.96 137.655 141.564 138.286 142.774 139.548C144.036 140.811 144.667 142.336 144.667 144.124C144.667 145.965 144.036 147.516 142.774 148.779C141.564 150.041 139.96 150.672 137.961 150.672C135.963 150.672 134.332 150.041 133.07 148.779C131.86 147.516 131.255 145.965 131.255 144.124Z" fill="#4063FF"/>
<path d="M165.29 180.414C165.29 181.887 165.764 182.965 166.711 183.649C167.657 184.28 168.972 184.596 170.655 184.596C171.444 184.596 172.286 184.517 173.18 184.359C174.074 184.149 174.836 183.912 175.468 183.649C175.941 184.175 176.335 184.78 176.651 185.463C176.966 186.147 177.124 186.936 177.124 187.83C177.124 189.671 176.388 191.196 174.915 192.406C173.495 193.563 170.997 194.142 167.421 194.142C163.003 194.142 159.558 193.142 157.086 191.144C154.614 189.092 153.378 185.779 153.378 181.203V145.781C153.956 145.623 154.719 145.465 155.666 145.308C156.612 145.097 157.638 144.992 158.742 144.992C161.057 144.992 162.713 145.413 163.713 146.254C164.765 147.043 165.29 148.516 165.29 150.672V155.8H176.178C176.441 156.326 176.703 157.01 176.966 157.851C177.229 158.64 177.361 159.482 177.361 160.376C177.361 162.059 176.966 163.269 176.178 164.005C175.441 164.741 174.468 165.109 173.259 165.109H165.29V180.414Z" fill="#4063FF"/>
<path d="M222.23 173.945C222.23 177.048 221.757 179.862 220.81 182.387C219.863 184.859 218.496 186.962 216.708 188.698C214.972 190.434 212.868 191.775 210.396 192.721C207.924 193.668 205.163 194.142 202.113 194.142C199.062 194.142 196.275 193.694 193.75 192.8C191.278 191.854 189.148 190.513 187.36 188.777C185.624 187.041 184.283 184.937 183.336 182.466C182.39 179.941 181.916 177.101 181.916 173.945C181.916 170.895 182.39 168.134 183.336 165.662C184.336 163.137 185.703 161.007 187.439 159.271C189.227 157.536 191.357 156.195 193.829 155.248C196.354 154.301 199.115 153.828 202.113 153.828C205.11 153.828 207.845 154.301 210.317 155.248C212.789 156.195 214.893 157.562 216.629 159.35C218.417 161.086 219.784 163.19 220.731 165.662C221.73 168.134 222.23 170.895 222.23 173.945ZM202.113 163.295C199.641 163.295 197.721 164.215 196.354 166.056C194.986 167.897 194.302 170.527 194.302 173.945C194.302 177.469 194.96 180.151 196.275 181.992C197.642 183.78 199.588 184.675 202.113 184.675C204.637 184.675 206.557 183.754 207.872 181.913C209.239 180.072 209.923 177.416 209.923 173.945C209.923 170.579 209.239 167.976 207.872 166.135C206.504 164.242 204.585 163.295 202.113 163.295Z" fill="#4063FF"/>
<path d="M110.257 213.229C109.355 213.229 108.553 213.034 107.851 212.644C107.161 212.243 106.615 211.692 106.214 210.99C105.824 210.288 105.629 209.486 105.629 208.584C105.629 207.671 105.813 206.869 106.181 206.179C106.559 205.477 107.077 204.926 107.735 204.525C108.392 204.124 109.149 203.923 110.007 203.923C110.853 203.923 111.588 204.118 112.212 204.508C112.847 204.887 113.337 205.416 113.682 206.095C114.027 206.774 114.2 207.549 114.2 208.417C114.2 208.595 114.144 208.74 114.033 208.852C113.921 208.952 113.777 209.002 113.598 209.002H106.849C106.916 209.603 107.1 210.138 107.4 210.606C107.701 211.062 108.096 211.424 108.587 211.692C109.077 211.948 109.633 212.076 110.257 212.076C110.658 212.076 111.059 212.009 111.46 211.875C111.872 211.731 112.201 211.552 112.446 211.341C112.568 211.241 112.707 211.191 112.863 211.191C113.019 211.179 113.153 211.218 113.264 211.307C113.409 211.441 113.482 211.586 113.482 211.742C113.493 211.898 113.431 212.031 113.298 212.143C112.93 212.455 112.462 212.716 111.894 212.928C111.326 213.128 110.781 213.229 110.257 213.229ZM110.007 205.076C109.149 205.076 108.442 205.343 107.885 205.878C107.328 206.401 106.994 207.086 106.882 207.933H112.997C112.908 207.086 112.596 206.401 112.061 205.878C111.538 205.343 110.853 205.076 110.007 205.076Z" fill="#FFC519"/>
<path d="M120.21 213.229C119.33 213.229 118.539 213.028 117.837 212.627C117.136 212.215 116.579 211.658 116.167 210.957C115.766 210.255 115.565 209.459 115.565 208.568C115.565 207.688 115.76 206.897 116.15 206.195C116.551 205.494 117.091 204.942 117.771 204.541C118.45 204.129 119.218 203.923 120.076 203.923C120.822 203.923 121.496 204.085 122.098 204.408C122.699 204.72 123.183 205.137 123.551 205.661V200.749C123.551 200.548 123.612 200.393 123.735 200.281C123.857 200.159 124.013 200.097 124.203 200.097C124.392 200.097 124.548 200.159 124.67 200.281C124.793 200.393 124.854 200.548 124.854 200.749V208.634C124.832 209.503 124.615 210.288 124.203 210.99C123.802 211.681 123.25 212.226 122.549 212.627C121.858 213.028 121.078 213.229 120.21 213.229ZM120.21 212.059C120.856 212.059 121.429 211.909 121.93 211.608C122.443 211.296 122.844 210.879 123.133 210.355C123.434 209.832 123.584 209.236 123.584 208.568C123.584 207.91 123.434 207.32 123.133 206.797C122.844 206.262 122.443 205.844 121.93 205.544C121.429 205.243 120.856 205.093 120.21 205.093C119.575 205.093 119.001 205.243 118.489 205.544C117.977 205.844 117.57 206.262 117.269 206.797C116.969 207.32 116.818 207.91 116.818 208.568C116.818 209.236 116.969 209.832 117.269 210.355C117.57 210.879 117.977 211.296 118.489 211.608C119.001 211.909 119.575 212.059 120.21 212.059Z" fill="#FFC519"/>
<path d="M131.838 213.245C131.047 213.245 130.34 213.084 129.716 212.761C129.092 212.427 128.597 211.942 128.229 211.307C127.873 210.673 127.695 209.899 127.695 208.985V204.642C127.695 204.463 127.756 204.313 127.878 204.191C128.001 204.068 128.151 204.007 128.33 204.007C128.519 204.007 128.675 204.068 128.797 204.191C128.92 204.313 128.981 204.463 128.981 204.642V208.985C128.981 210.01 129.265 210.773 129.833 211.274C130.401 211.775 131.114 212.026 131.972 212.026C132.517 212.026 133.007 211.92 133.442 211.708C133.887 211.497 134.238 211.207 134.494 210.84C134.75 210.472 134.879 210.054 134.879 209.587V204.642C134.879 204.452 134.934 204.302 135.046 204.191C135.168 204.068 135.324 204.007 135.513 204.007C135.703 204.007 135.859 204.068 135.981 204.191C136.104 204.302 136.165 204.452 136.165 204.642V212.494C136.165 212.694 136.104 212.856 135.981 212.978C135.859 213.089 135.703 213.145 135.513 213.145C135.324 213.145 135.168 213.089 135.046 212.978C134.934 212.856 134.879 212.694 134.879 212.494V211.926C134.511 212.338 134.065 212.661 133.542 212.895C133.019 213.128 132.45 213.245 131.838 213.245Z" fill="#FFC519"/>
<path d="M143.244 213.229C142.365 213.229 141.579 213.028 140.889 212.627C140.209 212.215 139.669 211.658 139.268 210.957C138.878 210.255 138.684 209.464 138.684 208.584C138.684 207.693 138.873 206.897 139.252 206.195C139.63 205.494 140.148 204.942 140.805 204.541C141.462 204.129 142.22 203.923 143.077 203.923C144.47 203.923 145.6 204.458 146.469 205.527C146.591 205.661 146.636 205.805 146.602 205.961C146.569 206.106 146.474 206.234 146.318 206.346C146.196 206.435 146.057 206.468 145.901 206.446C145.756 206.412 145.628 206.329 145.516 206.195C144.871 205.46 144.057 205.093 143.077 205.093C142.454 205.093 141.902 205.243 141.423 205.544C140.956 205.844 140.588 206.257 140.321 206.78C140.065 207.303 139.937 207.905 139.937 208.584C139.937 209.253 140.076 209.848 140.354 210.372C140.633 210.895 141.022 211.307 141.524 211.608C142.025 211.909 142.598 212.059 143.244 212.059C144.135 212.059 144.854 211.82 145.4 211.341C145.533 211.23 145.672 211.168 145.817 211.157C145.962 211.146 146.096 211.191 146.218 211.291C146.352 211.413 146.424 211.552 146.435 211.708C146.458 211.864 146.408 211.998 146.285 212.109C145.472 212.856 144.458 213.229 143.244 213.229Z" fill="#FFC519"/>
<path d="M153.146 213.229C152.289 213.229 151.52 213.028 150.841 212.627C150.162 212.215 149.621 211.658 149.22 210.957C148.831 210.255 148.636 209.464 148.636 208.584C148.636 207.693 148.836 206.897 149.237 206.195C149.649 205.494 150.206 204.942 150.908 204.541C151.609 204.129 152.4 203.923 153.28 203.923C154.16 203.923 154.945 204.129 155.636 204.541C156.337 204.942 156.889 205.494 157.29 206.195C157.702 206.897 157.913 207.693 157.924 208.584V212.51C157.924 212.7 157.863 212.856 157.741 212.978C157.618 213.089 157.462 213.145 157.273 213.145C157.084 213.145 156.928 213.089 156.805 212.978C156.683 212.856 156.621 212.7 156.621 212.51V211.491C156.243 212.026 155.753 212.449 155.151 212.761C154.55 213.073 153.881 213.229 153.146 213.229ZM153.28 212.059C153.926 212.059 154.5 211.909 155.001 211.608C155.513 211.307 155.914 210.895 156.204 210.372C156.504 209.837 156.655 209.241 156.655 208.584C156.655 207.916 156.504 207.32 156.204 206.797C155.914 206.273 155.513 205.861 155.001 205.56C154.5 205.249 153.926 205.093 153.28 205.093C152.645 205.093 152.072 205.249 151.559 205.56C151.047 205.861 150.64 206.273 150.34 206.797C150.039 207.32 149.889 207.916 149.889 208.584C149.889 209.241 150.039 209.837 150.34 210.372C150.64 210.895 151.047 211.307 151.559 211.608C152.072 211.909 152.645 212.059 153.28 212.059Z" fill="#FFC519"/>
<path d="M164.503 213.229C163.623 213.229 162.838 213.028 162.147 212.627C161.468 212.215 160.928 211.658 160.527 210.957C160.137 210.255 159.942 209.464 159.942 208.584C159.942 207.693 160.131 206.897 160.51 206.195C160.889 205.494 161.406 204.942 162.064 204.541C162.721 204.129 163.478 203.923 164.336 203.923C165.728 203.923 166.858 204.458 167.727 205.527C167.85 205.661 167.894 205.805 167.861 205.961C167.827 206.106 167.733 206.234 167.577 206.346C167.454 206.435 167.315 206.468 167.159 206.446C167.014 206.412 166.886 206.329 166.775 206.195C166.129 205.46 165.316 205.093 164.336 205.093C163.712 205.093 163.161 205.243 162.682 205.544C162.214 205.844 161.846 206.257 161.579 206.78C161.323 207.303 161.195 207.905 161.195 208.584C161.195 209.253 161.334 209.848 161.613 210.372C161.891 210.895 162.281 211.307 162.782 211.608C163.283 211.909 163.857 212.059 164.503 212.059C165.394 212.059 166.112 211.82 166.658 211.341C166.792 211.23 166.931 211.168 167.076 211.157C167.22 211.146 167.354 211.191 167.477 211.291C167.61 211.413 167.683 211.552 167.694 211.708C167.716 211.864 167.666 211.998 167.543 212.109C166.73 212.856 165.717 213.229 164.503 213.229Z" fill="#FFC519"/>
<path d="M171.297 213.145C171.097 213.145 170.935 213.089 170.813 212.978C170.701 212.856 170.646 212.694 170.646 212.494V204.658C170.646 204.458 170.701 204.302 170.813 204.191C170.935 204.068 171.097 204.007 171.297 204.007C171.487 204.007 171.637 204.068 171.748 204.191C171.871 204.302 171.932 204.458 171.932 204.658V212.494C171.932 212.694 171.871 212.856 171.748 212.978C171.637 213.089 171.487 213.145 171.297 213.145ZM171.281 202.269C171.036 202.269 170.824 202.18 170.646 202.002C170.468 201.824 170.378 201.607 170.378 201.35C170.378 201.072 170.468 200.855 170.646 200.699C170.835 200.532 171.052 200.448 171.297 200.448C171.531 200.448 171.737 200.532 171.915 200.699C172.105 200.855 172.2 201.072 172.2 201.35C172.2 201.607 172.11 201.824 171.932 202.002C171.754 202.18 171.537 202.269 171.281 202.269Z" fill="#FFC519"/>
<path d="M179.368 213.229C178.477 213.229 177.68 213.028 176.979 212.627C176.277 212.226 175.726 211.675 175.325 210.973C174.924 210.272 174.723 209.475 174.723 208.584C174.723 207.682 174.924 206.88 175.325 206.179C175.726 205.477 176.277 204.926 176.979 204.525C177.68 204.124 178.477 203.923 179.368 203.923C180.259 203.923 181.049 204.124 181.74 204.525C182.442 204.926 182.993 205.477 183.394 206.179C183.795 206.88 184.001 207.682 184.012 208.584C184.012 209.475 183.806 210.272 183.394 210.973C182.993 211.675 182.442 212.226 181.74 212.627C181.049 213.028 180.259 213.229 179.368 213.229ZM179.368 212.059C180.014 212.059 180.593 211.909 181.105 211.608C181.617 211.307 182.018 210.895 182.308 210.372C182.598 209.848 182.742 209.253 182.742 208.584C182.742 207.916 182.598 207.32 182.308 206.797C182.018 206.262 181.617 205.844 181.105 205.544C180.593 205.243 180.014 205.093 179.368 205.093C178.722 205.093 178.142 205.243 177.63 205.544C177.118 205.844 176.711 206.262 176.411 206.797C176.121 207.32 175.976 207.916 175.976 208.584C175.976 209.253 176.121 209.848 176.411 210.372C176.711 210.895 177.118 211.307 177.63 211.608C178.142 211.909 178.722 212.059 179.368 212.059Z" fill="#FFC519"/>
<path d="M187.166 213.145C186.965 213.145 186.804 213.089 186.681 212.978C186.57 212.856 186.514 212.7 186.514 212.51V204.658C186.514 204.458 186.57 204.302 186.681 204.191C186.804 204.068 186.965 204.007 187.166 204.007C187.355 204.007 187.505 204.068 187.617 204.191C187.739 204.302 187.8 204.458 187.8 204.658V205.226C188.157 204.814 188.597 204.491 189.12 204.257C189.655 204.023 190.228 203.906 190.841 203.906C191.632 203.906 192.339 204.074 192.963 204.408C193.586 204.731 194.076 205.21 194.433 205.844C194.8 206.479 194.984 207.253 194.984 208.167V212.51C194.984 212.689 194.923 212.839 194.8 212.961C194.678 213.084 194.527 213.145 194.349 213.145C194.16 213.145 194.004 213.084 193.882 212.961C193.759 212.839 193.698 212.689 193.698 212.51V208.167C193.698 207.131 193.408 206.368 192.829 205.878C192.261 205.377 191.554 205.126 190.707 205.126C190.162 205.126 189.666 205.232 189.22 205.443C188.786 205.655 188.441 205.945 188.185 206.312C187.928 206.68 187.8 207.097 187.8 207.565V212.51C187.8 212.7 187.739 212.856 187.617 212.978C187.505 213.089 187.355 213.145 187.166 213.145Z" fill="#FFC519"/>
<path d="M201.846 213.229C200.989 213.229 200.22 213.028 199.541 212.627C198.862 212.215 198.321 211.658 197.92 210.957C197.531 210.255 197.336 209.464 197.336 208.584C197.336 207.693 197.536 206.897 197.937 206.195C198.349 205.494 198.906 204.942 199.608 204.541C200.309 204.129 201.1 203.923 201.98 203.923C202.86 203.923 203.645 204.129 204.336 204.541C205.037 204.942 205.589 205.494 205.99 206.195C206.402 206.897 206.613 207.693 206.625 208.584V212.51C206.625 212.7 206.563 212.856 206.441 212.978C206.318 213.089 206.162 213.145 205.973 213.145C205.784 213.145 205.628 213.089 205.505 212.978C205.383 212.856 205.321 212.7 205.321 212.51V211.491C204.943 212.026 204.453 212.449 203.851 212.761C203.25 213.073 202.582 213.229 201.846 213.229ZM201.98 212.059C202.626 212.059 203.2 211.909 203.701 211.608C204.213 211.307 204.614 210.895 204.904 210.372C205.204 209.837 205.355 209.241 205.355 208.584C205.355 207.916 205.204 207.32 204.904 206.797C204.614 206.273 204.213 205.861 203.701 205.56C203.2 205.249 202.626 205.093 201.98 205.093C201.345 205.093 200.772 205.249 200.259 205.56C199.747 205.861 199.34 206.273 199.04 206.797C198.739 207.32 198.589 207.916 198.589 208.584C198.589 209.241 198.739 209.837 199.04 210.372C199.34 210.895 199.747 211.307 200.259 211.608C200.772 211.909 201.345 212.059 201.98 212.059Z" fill="#FFC519"/>
<path d="M211.098 213.145C210.43 213.145 209.878 212.878 209.444 212.343C209.01 211.798 208.792 211.101 208.792 210.255V200.732C208.792 200.543 208.848 200.393 208.959 200.281C209.082 200.159 209.238 200.097 209.427 200.097C209.617 200.097 209.767 200.159 209.878 200.281C210.001 200.393 210.062 200.543 210.062 200.732V210.255C210.062 210.734 210.157 211.124 210.346 211.424C210.547 211.725 210.797 211.875 211.098 211.875H211.515C211.683 211.875 211.816 211.937 211.916 212.059C212.017 212.171 212.067 212.321 212.067 212.51C212.067 212.7 211.994 212.856 211.85 212.978C211.716 213.089 211.538 213.145 211.315 213.145H211.098Z" fill="#FFC519"/>
<path d="M172.292 69.1082C173.681 74.8937 175.683 88.0784 165.087 88.0784C151.513 88.0784 160.214 71.5465 148.381 60.6983C136.547 49.8501 121.532 56.0562 123.18 49.8501C124.829 43.644 120.281 36.6241 121.928 36.0439C123.179 35.6035 141.321 35.8319 149.986 35.9675C152.514 36.0071 154.529 38.0696 154.529 40.5986V43.992C160.678 43.992 164.159 43.4118 164.159 36.0439L205.52 36.5663C208.06 36.5984 210.102 38.6665 210.102 41.2066V57.3912C210.102 59.9542 208.024 62.0319 205.461 62.0319H177.733C176.459 62.0319 175.24 62.5559 174.364 63.481L173.464 64.4315C172.291 65.6692 171.894 67.4504 172.292 69.1082Z" fill="#4063FF"/>
<path d="M172.292 69.1082C173.681 74.8937 175.683 88.0784 165.087 88.0784C151.513 88.0784 160.214 71.5465 148.381 60.6983C136.547 49.8501 121.532 56.0562 123.18 49.8501C124.829 43.644 120.281 36.6241 121.928 36.0439C123.179 35.6035 141.321 35.8319 149.986 35.9675C152.514 36.0071 154.529 38.0696 154.529 40.5986V43.992C160.678 43.992 164.159 43.4118 164.159 36.0439L205.52 36.5663C208.06 36.5984 210.102 38.6665 210.102 41.2066V57.3912C210.102 59.9542 208.024 62.0319 205.461 62.0319H177.733C176.459 62.0319 175.24 62.5559 174.364 63.481L173.464 64.4315C172.291 65.6692 171.894 67.4504 172.292 69.1082Z" fill="#4063FF"/>
<path fill-rule="evenodd" clip-rule="evenodd" d="M134.807 115.691C134.807 120.496 130.911 124.392 126.105 124.392C120.392 124.392 114.735 123.267 109.456 121.08C104.178 118.894 99.3815 115.689 95.3416 111.649C91.3016 107.609 88.097 102.813 85.9105 97.5346C83.7241 92.2561 82.5988 86.5987 82.5988 80.8854C82.5988 76.0798 86.4945 72.1841 91.3001 72.1841C96.1057 72.1841 100.001 76.0798 100.001 80.8854C100.001 84.3134 100.677 87.7078 101.988 90.8749C103.3 94.042 105.223 96.9196 107.647 99.3436C110.071 101.768 112.949 103.69 116.116 105.002C119.283 106.314 122.677 106.989 126.105 106.989C130.911 106.989 134.807 110.885 134.807 115.691Z" fill="#FFC519"/>
<path fill-rule="evenodd" clip-rule="evenodd" d="M164.391 72.1841C169.197 72.1841 173.092 76.0798 173.092 80.8854C173.092 86.6068 171.958 92.2708 169.755 97.5535C167.552 102.836 164.325 107.632 160.261 111.67C156.197 115.707 151.375 118.906 146.073 121.088C140.771 123.27 135.09 124.392 129.354 124.392C124.548 124.392 120.652 120.496 120.652 115.691C120.652 110.885 124.548 106.989 129.354 106.989C132.82 106.989 136.251 106.311 139.451 104.994C142.65 103.678 145.554 101.75 147.997 99.3232C150.439 96.8966 152.374 94.0189 153.693 90.856C155.012 87.6932 155.69 84.3053 155.69 80.8854C155.69 76.0798 159.585 72.1841 164.391 72.1841Z" fill="#F11038"/>
<path fill-rule="evenodd" clip-rule="evenodd" d="M109.456 39.0664C114.735 36.88 120.392 35.7546 126.105 35.7546C130.911 35.7546 134.807 39.6503 134.807 44.4559C134.807 49.2615 130.911 53.1572 126.105 53.1572C122.677 53.1572 119.283 53.8324 116.116 55.1443C112.949 56.4561 110.071 58.3789 107.647 60.8029C105.223 63.2269 103.3 66.1045 101.988 69.2716C100.677 72.4387 100.001 75.8331 100.001 79.2611C100.001 84.0667 96.1057 87.9624 91.3001 87.9624C86.4945 87.9624 82.5988 84.0667 82.5988 79.2611C82.5988 73.5478 83.7241 67.8904 85.9105 62.6119C88.097 57.3335 91.3016 52.5373 95.3416 48.4974C99.3815 44.4574 104.178 41.2528 109.456 39.0664Z" fill="#26FF4D"/>
</svg>
