<svg width="154" height="64" viewBox="0 0 154 64" fill="none" xmlns="http://www.w3.org/2000/svg">
<path d="M15.059 40.2572C16.0406 40.2572 16.9999 40.1683 17.9369 39.9906C18.9185 39.7684 19.6547 39.5018 20.1455 39.1908L20.1455 33.0589L14.6574 33.5254C13.2296 33.6587 12.0695 33.992 11.1771 34.5252C10.3293 35.014 9.90545 35.7694 9.90545 36.7913C9.90545 37.8578 10.307 38.702 11.1102 39.3241C11.9133 39.9462 13.2296 40.2572 15.059 40.2572ZM14.6574 13.6635C16.9776 13.6635 19.0747 13.9078 20.9487 14.3966C22.8673 14.841 24.4959 15.5519 25.8345 16.5294C27.1731 17.507 28.1993 18.7511 28.9132 20.2619C29.6717 21.7727 30.051 23.55 30.051 25.594L30.051 40.6571C30.051 41.8124 29.7386 42.7455 29.114 43.4564C28.5339 44.123 27.82 44.7006 26.9723 45.1894C25.5891 46.0336 23.8935 46.6779 21.8857 47.1222C19.8778 47.5666 17.6022 47.7888 15.059 47.7888C10.4632 47.7888 6.80442 46.9223 4.08265 45.1894C1.36088 43.412 0 40.7238 0 37.1246C0 34.0587 0.914692 31.7259 2.74408 30.1262C4.57346 28.5266 7.38447 27.5269 11.1771 27.127L20.0786 26.1938V25.4607C20.0786 24.0388 19.4986 22.9946 18.3385 22.3281C17.1784 21.6616 15.5051 21.3283 13.3188 21.3283C11.6233 21.3283 9.95007 21.5283 8.29916 21.9282C6.69287 22.3281 5.24275 22.7946 3.94879 23.3278C3.41336 22.9724 2.94486 22.4392 2.54329 21.7282C2.18634 20.9728 2.00786 20.173 2.00786 19.3288C2.00786 17.3737 3.0341 15.974 5.08658 15.1298C6.38054 14.641 7.87528 14.2855 9.5708 14.0634C11.311 13.7968 13.0065 13.6635 14.6574 13.6635Z" fill="white"/>
<path d="M53.6203 47.7221C52.4602 47.7221 51.3894 47.611 50.4078 47.3889C49.4261 47.2111 48.5338 46.9667 47.7306 46.6557V58.5862C47.2844 58.7195 46.6598 58.8528 45.8566 58.9861C45.0535 59.1194 44.1611 59.1861 43.1795 59.1861C41.1716 59.1861 39.7215 58.8528 38.8291 58.1863C37.9367 57.5198 37.4905 56.2534 37.4905 54.3872L37.4905 21.395C37.4905 20.2397 37.7359 19.3066 38.2267 18.5956C38.7176 17.8402 39.4091 17.1737 40.3015 16.5961C41.6401 15.7519 43.3579 15.0631 45.455 14.5299C47.5521 13.9523 49.8723 13.6635 52.4156 13.6635C55.0035 13.6635 57.3683 13.9967 59.5101 14.6632C61.6964 15.2853 63.5704 16.2851 65.1321 17.6625C66.6937 19.04 67.8985 20.7951 68.7462 22.9279C69.6386 25.0608 70.0848 27.5935 70.0848 30.5262C70.0848 33.3255 69.6609 35.8138 68.8132 37.9911C68.01 40.1239 66.8722 41.9235 65.3998 43.3898C63.9274 44.8117 62.1872 45.9003 60.1794 46.6557C58.1715 47.3666 55.9852 47.7221 53.6203 47.7221ZM52.081 39.6573C54.4904 39.6573 56.3421 38.902 57.6361 37.3912C58.9746 35.8804 59.6439 33.5921 59.6439 30.5262C59.6439 27.3713 58.9969 25.1052 57.703 23.7278C56.4537 22.3503 54.6912 21.6616 52.4156 21.6616C51.3894 21.6616 50.497 21.7949 49.7385 22.0615C48.98 22.2836 48.2884 22.5503 47.6637 22.8613V38.5243C48.2884 38.8797 48.9576 39.1686 49.6716 39.3907C50.3855 39.5685 51.1886 39.6573 52.081 39.6573Z" fill="white"/>
<path d="M86.6915 46.6557C86.2453 46.789 85.6206 46.9001 84.8175 46.9889C84.0143 47.1222 83.122 47.1889 82.1403 47.1889C80.1325 47.1889 78.6824 46.8779 77.79 46.2558C76.9422 45.5893 76.5183 44.3229 76.5183 42.4567V15.0631C76.9645 14.9298 77.5892 14.7965 78.3923 14.6632C79.1955 14.5299 80.0879 14.4633 81.0695 14.4633C83.0773 14.4633 84.5051 14.7965 85.3529 15.463C86.2453 16.1295 86.6915 17.3959 86.6915 19.2621L86.6915 46.6557ZM75.916 5.46538C75.916 3.95462 76.4291 2.66604 77.4553 1.59962C78.5262 0.533208 79.9094 0 81.6049 0C83.3004 0 84.6613 0.533208 85.6876 1.59962C86.7584 2.66604 87.2938 3.95462 87.2938 5.46538C87.2938 7.02057 86.7584 8.33137 85.6876 9.39779C84.6613 10.4642 83.3004 10.9974 81.6049 10.9974C79.9094 10.9974 78.5262 10.4642 77.4553 9.39779C76.4291 8.33137 75.916 7.02057 75.916 5.46538Z" fill="white"/>
<path d="M104.79 36.1248C104.79 37.369 105.192 38.2799 105.995 38.8575C106.798 39.3907 107.913 39.6573 109.341 39.6573C110.01 39.6573 110.724 39.5907 111.483 39.4574C112.241 39.2797 112.888 39.0797 113.424 38.8575C113.825 39.3019 114.16 39.8129 114.428 40.3905C114.695 40.9681 114.829 41.6346 114.829 42.39C114.829 43.9452 114.205 45.2338 112.955 46.2558C111.751 47.2333 109.631 47.7221 106.597 47.7221C102.849 47.7221 99.9265 46.8779 97.8294 45.1894C95.7323 43.4564 94.6837 40.6571 94.6837 36.7913V6.86505C95.1745 6.73175 95.8215 6.59845 96.6246 6.46514C97.4278 6.28741 98.2979 6.19854 99.2349 6.19854C101.198 6.19854 102.604 6.55401 103.451 7.26496C104.344 7.93147 104.79 9.17562 104.79 10.9974V15.3297L114.026 15.3297C114.249 15.7741 114.472 16.3517 114.695 17.0627C114.918 17.7292 115.03 18.4401 115.03 19.1955C115.03 20.6174 114.695 21.6394 114.026 22.2614C113.401 22.8835 112.576 23.1945 111.55 23.1945H104.79V36.1248Z" fill="white"/>
<path d="M153.095 30.6595C153.095 33.2811 152.694 35.6583 151.891 37.7911C151.087 39.8795 149.927 41.6569 148.41 43.1232C146.938 44.5895 145.153 45.7226 143.056 46.5224C140.959 47.3222 138.616 47.7221 136.028 47.7221C133.441 47.7221 131.076 47.3444 128.934 46.589C126.837 45.7892 125.03 44.6562 123.513 43.1898C122.04 41.7235 120.903 39.9462 120.099 37.8578C119.296 35.7249 118.895 33.3255 118.895 30.6595C118.895 28.0823 119.296 25.7495 120.099 23.6611C120.947 21.5283 122.107 19.7287 123.58 18.2624C125.097 16.796 126.904 15.663 129.001 14.8632C131.143 14.0634 133.485 13.6635 136.028 13.6635C138.572 13.6635 140.892 14.0634 142.989 14.8632C145.086 15.663 146.871 16.8183 148.343 18.329C149.86 19.7953 151.02 21.5727 151.824 23.6611C152.671 25.7495 153.095 28.0823 153.095 30.6595ZM136.028 21.6616C133.931 21.6616 132.303 22.4392 131.143 23.9944C129.983 25.5495 129.402 27.7712 129.402 30.6595C129.402 33.6365 129.96 35.9027 131.076 37.4579C132.236 38.9686 133.887 39.724 136.028 39.724C138.17 39.724 139.799 38.9464 140.914 37.3912C142.074 35.836 142.654 33.5921 142.654 30.6595C142.654 27.8157 142.074 25.6162 140.914 24.061C139.754 22.4614 138.126 21.6616 136.028 21.6616Z" fill="white"/>
<path d="M58.102 63.8476C57.3366 63.8476 56.6563 63.683 56.061 63.3536C55.4752 63.0149 55.0122 62.5491 54.6721 61.9563C54.3413 61.3635 54.176 60.686 54.176 59.9239C54.176 59.1523 54.3319 58.4748 54.6437 57.8914C54.965 57.2986 55.4043 56.8328 55.9618 56.4941C56.5193 56.1553 57.1618 55.986 57.8894 55.986C58.6075 55.986 59.2311 56.1506 59.7602 56.48C60.2988 56.7999 60.7145 57.2468 61.0074 57.8208C61.3004 58.3948 61.4468 59.0488 61.4468 59.7827C61.4468 59.9333 61.3996 60.0556 61.3051 60.1497C61.2106 60.2344 61.0878 60.2767 60.9366 60.2767H55.2106C55.2673 60.7848 55.4232 61.2365 55.6783 61.6317C55.9335 62.0175 56.2689 62.3233 56.6846 62.5491C57.1004 62.7655 57.5728 62.8738 58.102 62.8738C58.4421 62.8738 58.7823 62.8173 59.1224 62.7044C59.472 62.5821 59.7508 62.4315 59.9586 62.2527C60.0626 62.168 60.1807 62.1257 60.313 62.1257C60.4452 62.1163 60.5586 62.1492 60.6531 62.2245C60.776 62.3374 60.8374 62.4597 60.8374 62.5915C60.8468 62.7232 60.7948 62.8361 60.6815 62.9302C60.3697 63.1937 59.9728 63.4148 59.4909 63.5936C59.009 63.763 58.546 63.8476 58.102 63.8476ZM57.8894 56.9599C57.1618 56.9599 56.5618 57.1857 56.0894 57.6373C55.6169 58.0796 55.3335 58.6583 55.239 59.3734H60.4263C60.3508 58.6583 60.0862 58.0796 59.6327 57.6373C59.1886 57.1857 58.6075 56.9599 57.8894 56.9599Z" fill="#E5E5E5"/>
<path d="M66.5453 63.8476C65.7988 63.8476 65.128 63.6783 64.5327 63.3395C63.9374 62.9914 63.465 62.5209 63.1154 61.9281C62.7752 61.3353 62.6051 60.6625 62.6051 59.9098C62.6051 59.1664 62.7705 58.4983 63.1012 57.9055C63.4413 57.3127 63.8996 56.8469 64.476 56.5082C65.0524 56.16 65.7043 55.986 66.4319 55.986C67.0649 55.986 67.6366 56.1224 68.1468 56.3953C68.6571 56.6587 69.0681 57.0116 69.3799 57.4539V53.3042C69.3799 53.1349 69.4319 53.0031 69.5358 52.909C69.6397 52.8055 69.772 52.7538 69.9326 52.7538C70.0933 52.7538 70.2256 52.8055 70.3295 52.909C70.4334 53.0031 70.4854 53.1349 70.4854 53.3042V59.9662C70.4665 60.7002 70.2822 61.3635 69.9326 61.9563C69.5925 62.5397 69.1248 63.0008 68.5295 63.3395C67.9437 63.6783 67.2823 63.8476 66.5453 63.8476ZM66.5453 62.8596C67.0933 62.8596 67.5799 62.7326 68.0051 62.4786C68.4397 62.2151 68.7799 61.8622 69.0256 61.42C69.2807 60.9777 69.4082 60.4743 69.4082 59.9098C69.4082 59.3546 69.2807 58.8559 69.0256 58.4136C68.7799 57.962 68.4397 57.6091 68.0051 57.3551C67.5799 57.101 67.0933 56.974 66.5453 56.974C66.0067 56.974 65.5201 57.101 65.0854 57.3551C64.6508 57.6091 64.3059 57.962 64.0508 58.4136C63.7957 58.8559 63.6681 59.3546 63.6681 59.9098C63.6681 60.4743 63.7957 60.9777 64.0508 61.42C64.3059 61.8622 64.6508 62.2151 65.0854 62.4786C65.5201 62.7326 66.0067 62.8596 66.5453 62.8596Z" fill="#E5E5E5"/>
<path d="M76.4102 63.8618C75.7393 63.8618 75.1394 63.7253 74.6102 63.4524C74.0811 63.1702 73.6606 62.7608 73.3488 62.2245C73.0465 61.6882 72.8953 61.0342 72.8953 60.2626V56.5929C72.8953 56.4423 72.9472 56.3153 73.0512 56.2118C73.1551 56.1083 73.2827 56.0565 73.4339 56.0565C73.5945 56.0565 73.7268 56.1083 73.8307 56.2118C73.9346 56.3153 73.9866 56.4423 73.9866 56.5929V60.2626C73.9866 61.1283 74.2275 61.7728 74.7094 62.1963C75.1913 62.6197 75.796 62.8314 76.5236 62.8314C76.9866 62.8314 77.4023 62.742 77.7708 62.5632C78.1488 62.3845 78.4464 62.1398 78.6637 61.8293C78.8811 61.5188 78.9897 61.1659 78.9897 60.7707V56.5929C78.9897 56.4329 79.037 56.3059 79.1315 56.2118C79.2354 56.1083 79.3677 56.0565 79.5283 56.0565C79.6889 56.0565 79.8212 56.1083 79.9251 56.2118C80.0291 56.3059 80.0811 56.4329 80.0811 56.5929V63.2266C80.0811 63.396 80.0291 63.5324 79.9251 63.6359C79.8212 63.73 79.6889 63.7771 79.5283 63.7771C79.3677 63.7771 79.2354 63.73 79.1315 63.6359C79.037 63.5324 78.9897 63.396 78.9897 63.2266V62.7467C78.6779 63.0949 78.3 63.3678 77.8559 63.5654C77.4118 63.763 76.9299 63.8618 76.4102 63.8618Z" fill="#E5E5E5"/>
<path d="M86.087 63.8476C85.3406 63.8476 84.6744 63.6783 84.0886 63.3395C83.5122 62.9914 83.054 62.5209 82.7138 61.9281C82.3831 61.3353 82.2178 60.6672 82.2178 59.9239C82.2178 59.1711 82.3784 58.4983 82.6996 57.9055C83.0209 57.3127 83.4603 56.8469 84.0177 56.5082C84.5752 56.16 85.2177 55.986 85.9453 55.986C87.1264 55.986 88.0854 56.4376 88.8224 57.3409C88.9264 57.4539 88.9642 57.5762 88.9358 57.7079C88.9075 57.8302 88.8272 57.9384 88.6949 58.0325C88.591 58.1078 88.4728 58.136 88.3406 58.1172C88.2177 58.089 88.1091 58.0184 88.0146 57.9055C87.4665 57.2845 86.7768 56.974 85.9453 56.974C85.4162 56.974 84.9485 57.101 84.5422 57.3551C84.1453 57.6091 83.8335 57.9573 83.6067 58.3995C83.3894 58.8418 83.2807 59.3499 83.2807 59.9239C83.2807 60.4884 83.3989 60.9918 83.6351 61.4341C83.8713 61.8763 84.202 62.2245 84.6272 62.4786C85.0524 62.7326 85.539 62.8596 86.087 62.8596C86.8429 62.8596 87.4524 62.6573 87.9154 62.2527C88.0287 62.1586 88.1469 62.1069 88.2697 62.0975C88.3925 62.0881 88.5059 62.1257 88.6098 62.2104C88.7232 62.3139 88.7846 62.4315 88.7941 62.5632C88.813 62.695 88.7705 62.8079 88.6665 62.902C87.9768 63.5324 87.1169 63.8476 86.087 63.8476Z" fill="#E5E5E5"/>
<path d="M94.4875 63.8476C93.7599 63.8476 93.108 63.6783 92.5316 63.3395C91.9552 62.9914 91.497 62.5209 91.1568 61.9281C90.8261 61.3353 90.6607 60.6672 90.6607 59.9239C90.6607 59.1711 90.8308 58.4983 91.171 57.9055C91.5206 57.3127 91.993 56.8469 92.5883 56.5082C93.1836 56.16 93.8544 55.986 94.6009 55.986C95.3473 55.986 96.0135 56.16 96.5993 56.5082C97.1946 56.8469 97.6623 57.3127 98.0024 57.9055C98.352 58.4983 98.5316 59.1711 98.541 59.9239V63.2407C98.541 63.4007 98.489 63.5324 98.3851 63.6359C98.2812 63.73 98.1489 63.7771 97.9883 63.7771C97.8276 63.7771 97.6953 63.73 97.5914 63.6359C97.4875 63.5324 97.4355 63.4007 97.4355 63.2407V62.3798C97.1142 62.8314 96.6985 63.189 96.1883 63.4524C95.678 63.7159 95.1111 63.8476 94.4875 63.8476ZM94.6009 62.8596C95.1489 62.8596 95.6355 62.7326 96.0607 62.4786C96.4953 62.2245 96.8355 61.8763 97.0812 61.4341C97.3363 60.9824 97.4638 60.479 97.4638 59.9239C97.4638 59.3593 97.3363 58.8559 97.0812 58.4136C96.8355 57.9714 96.4953 57.6232 96.0607 57.3692C95.6355 57.1057 95.1489 56.974 94.6009 56.974C94.0623 56.974 93.5757 57.1057 93.141 57.3692C92.7064 57.6232 92.3615 57.9714 92.1064 58.4136C91.8513 58.8559 91.7237 59.3593 91.7237 59.9239C91.7237 60.479 91.8513 60.9824 92.1064 61.4341C92.3615 61.8763 92.7064 62.2245 93.141 62.4786C93.5757 62.7326 94.0623 62.8596 94.6009 62.8596Z" fill="#E5E5E5"/>
<path d="M104.122 63.8476C103.375 63.8476 102.709 63.6783 102.123 63.3395C101.547 62.9914 101.089 62.5209 100.749 61.9281C100.418 61.3353 100.253 60.6672 100.253 59.9239C100.253 59.1711 100.413 58.4983 100.734 57.9055C101.056 57.3127 101.495 56.8469 102.053 56.5082C102.61 56.16 103.253 55.986 103.98 55.986C105.161 55.986 106.12 56.4376 106.857 57.3409C106.961 57.4539 106.999 57.5762 106.971 57.7079C106.942 57.8302 106.862 57.9384 106.73 58.0325C106.626 58.1078 106.508 58.136 106.375 58.1172C106.252 58.089 106.144 58.0184 106.049 57.9055C105.501 57.2845 104.812 56.974 103.98 56.974C103.451 56.974 102.983 57.101 102.577 57.3551C102.18 57.6091 101.868 57.9573 101.641 58.3995C101.424 58.8418 101.316 59.3499 101.316 59.9239C101.316 60.4884 101.434 60.9918 101.67 61.4341C101.906 61.8763 102.237 62.2245 102.662 62.4786C103.087 62.7326 103.574 62.8596 104.122 62.8596C104.878 62.8596 105.487 62.6573 105.95 62.2527C106.064 62.1586 106.182 62.1069 106.304 62.0975C106.427 62.0881 106.541 62.1257 106.645 62.2104C106.758 62.3139 106.819 62.4315 106.829 62.5632C106.848 62.695 106.805 62.8079 106.701 62.902C106.012 63.5324 105.152 63.8476 104.122 63.8476Z" fill="#E5E5E5"/>
<path d="M109.886 63.7771C109.716 63.7771 109.579 63.73 109.475 63.6359C109.381 63.5324 109.333 63.396 109.333 63.2266V56.607C109.333 56.4376 109.381 56.3059 109.475 56.2118C109.579 56.1083 109.716 56.0565 109.886 56.0565C110.047 56.0565 110.174 56.1083 110.269 56.2118C110.373 56.3059 110.425 56.4376 110.425 56.607V63.2266C110.425 63.396 110.373 63.5324 110.269 63.6359C110.174 63.73 110.047 63.7771 109.886 63.7771ZM109.872 54.5886C109.664 54.5886 109.484 54.5134 109.333 54.3628C109.182 54.2123 109.107 54.0288 109.107 53.8124C109.107 53.5771 109.182 53.3936 109.333 53.2619C109.494 53.1208 109.678 53.0502 109.886 53.0502C110.084 53.0502 110.259 53.1208 110.41 53.2619C110.571 53.3936 110.651 53.5771 110.651 53.8124C110.651 54.0288 110.576 54.2123 110.425 54.3628C110.273 54.5134 110.089 54.5886 109.872 54.5886Z" fill="#E5E5E5"/>
<path d="M116.733 63.8476C115.977 63.8476 115.301 63.6783 114.706 63.3395C114.111 63.0008 113.643 62.535 113.303 61.9422C112.963 61.3494 112.792 60.6766 112.792 59.9239C112.792 59.1617 112.963 58.4842 113.303 57.8914C113.643 57.2986 114.111 56.8328 114.706 56.4941C115.301 56.1553 115.977 55.986 116.733 55.986C117.488 55.986 118.159 56.1553 118.745 56.4941C119.34 56.8328 119.808 57.2986 120.148 57.8914C120.488 58.4842 120.663 59.1617 120.673 59.9239C120.673 60.6766 120.498 61.3494 120.148 61.9422C119.808 62.535 119.34 63.0008 118.745 63.3395C118.159 63.6783 117.488 63.8476 116.733 63.8476ZM116.733 62.8596C117.281 62.8596 117.772 62.7326 118.207 62.4786C118.641 62.2245 118.981 61.8763 119.227 61.4341C119.473 60.9918 119.596 60.4884 119.596 59.9239C119.596 59.3593 119.473 58.8559 119.227 58.4136C118.981 57.962 118.641 57.6091 118.207 57.3551C117.772 57.101 117.281 56.974 116.733 56.974C116.185 56.974 115.693 57.101 115.259 57.3551C114.824 57.6091 114.479 57.962 114.224 58.4136C113.978 58.8559 113.855 59.3593 113.855 59.9239C113.855 60.4884 113.978 60.9918 114.224 61.4341C114.479 61.8763 114.824 62.2245 115.259 62.4786C115.693 62.7326 116.185 62.8596 116.733 62.8596Z" fill="#E5E5E5"/>
<path d="M123.348 63.7771C123.178 63.7771 123.041 63.73 122.937 63.6359C122.842 63.5324 122.795 63.4007 122.795 63.2407V56.607C122.795 56.4376 122.842 56.3059 122.937 56.2118C123.041 56.1083 123.178 56.0565 123.348 56.0565C123.509 56.0565 123.636 56.1083 123.731 56.2118C123.835 56.3059 123.887 56.4376 123.887 56.607V57.0869C124.189 56.7387 124.562 56.4659 125.006 56.2683C125.46 56.0707 125.946 55.9719 126.466 55.9719C127.137 55.9719 127.737 56.113 128.266 56.3953C128.795 56.6682 129.211 57.0728 129.513 57.6091C129.825 58.1455 129.981 58.7994 129.981 59.571V63.2407C129.981 63.3913 129.929 63.5183 129.825 63.6218C129.721 63.7253 129.594 63.7771 129.442 63.7771C129.282 63.7771 129.15 63.7253 129.046 63.6218C128.942 63.5183 128.89 63.3913 128.89 63.2407V59.571C128.89 58.6959 128.644 58.0514 128.153 57.6373C127.671 57.2139 127.071 57.0022 126.353 57.0022C125.89 57.0022 125.469 57.0916 125.091 57.2704C124.723 57.4492 124.43 57.6938 124.213 58.0043C123.995 58.3148 123.887 58.6677 123.887 59.0629V63.2407C123.887 63.4007 123.835 63.5324 123.731 63.6359C123.636 63.73 123.509 63.7771 123.348 63.7771Z" fill="#E5E5E5"/>
<path d="M135.803 63.8476C135.075 63.8476 134.423 63.6783 133.847 63.3395C133.27 62.9914 132.812 62.5209 132.472 61.9281C132.141 61.3353 131.976 60.6672 131.976 59.9239C131.976 59.1711 132.146 58.4983 132.486 57.9055C132.836 57.3127 133.308 56.8469 133.904 56.5082C134.499 56.16 135.17 55.986 135.916 55.986C136.663 55.986 137.329 56.16 137.915 56.5082C138.51 56.8469 138.978 57.3127 139.318 57.9055C139.667 58.4983 139.847 59.1711 139.856 59.9239V63.2407C139.856 63.4007 139.804 63.5324 139.7 63.6359C139.596 63.73 139.464 63.7771 139.303 63.7771C139.143 63.7771 139.011 63.73 138.907 63.6359C138.803 63.5324 138.751 63.4007 138.751 63.2407V62.3798C138.429 62.8314 138.014 63.189 137.504 63.4524C136.993 63.7159 136.426 63.8476 135.803 63.8476ZM135.916 62.8596C136.464 62.8596 136.951 62.7326 137.376 62.4786C137.811 62.2245 138.151 61.8763 138.396 61.4341C138.652 60.9824 138.779 60.479 138.779 59.9239C138.779 59.3593 138.652 58.8559 138.396 58.4136C138.151 57.9714 137.811 57.6232 137.376 57.3692C136.951 57.1057 136.464 56.974 135.916 56.974C135.378 56.974 134.891 57.1057 134.456 57.3692C134.022 57.6232 133.677 57.9714 133.422 58.4136C133.167 58.8559 133.039 59.3593 133.039 59.9239C133.039 60.479 133.167 60.9824 133.422 61.4341C133.677 61.8763 134.022 62.2245 134.456 62.4786C134.891 62.7326 135.378 62.8596 135.916 62.8596Z" fill="#E5E5E5"/>
<path d="M143.651 63.7771C143.084 63.7771 142.617 63.5512 142.248 63.0996C141.88 62.6385 141.695 62.0504 141.695 61.3353V53.2901C141.695 53.1302 141.743 53.0031 141.837 52.909C141.941 52.8055 142.073 52.7538 142.234 52.7538C142.395 52.7538 142.522 52.8055 142.617 52.909C142.721 53.0031 142.772 53.1302 142.772 53.2901V61.3353C142.772 61.7399 142.853 62.0692 143.013 62.3233C143.183 62.5774 143.396 62.7044 143.651 62.7044H144.006C144.147 62.7044 144.261 62.7561 144.346 62.8596C144.431 62.9537 144.473 63.0808 144.473 63.2407C144.473 63.4007 144.412 63.5324 144.289 63.6359C144.176 63.73 144.024 63.7771 143.835 63.7771H143.651Z" fill="#E5E5E5"/>
</svg>
